<svg xmlns="http://www.w3.org/2000/svg" width="2000" height="321" viewBox="0 0 2000 321" version="1.1"><path d="M 130.977 31.427 C 61.429 45.959, 27.603 141.589, 77.394 182.912 L 78.970 184.220 89.235 174.963 C 111.721 154.685, 130.930 157.546, 139.506 182.450 L 141.574 188.457 145.711 189.163 C 157.117 191.111, 167 201.930, 167 212.470 C 167 214.928, 167.591 215.272, 174 216.547 C 184.398 218.617, 191.970 226.565, 193.623 237.145 C 194.388 242.039, 195.283 242.963, 199.283 242.985 C 206.538 243.025, 216.278 250.924, 219.512 259.392 L 221.269 263.993 220.764 271.061 L 220.258 278.128 228.122 285.940 C 239.679 297.420, 245.490 298.761, 251.924 291.434 L 255 287.930 255 283.265 L 255 278.599 222.500 246 L 190 213.401 190 210.701 C 190 209.215, 190.927 207.073, 192.059 205.941 L 194.118 203.882 197.004 204.191 L 199.890 204.500 232.360 236.189 L 264.830 267.877 268.318 268.532 L 271.806 269.186 275.447 267.458 C 286.686 262.125, 284.545 252.473, 268.803 237.514 C 248.686 218.397, 221 189.174, 221 187.057 C 221 183.966, 224.532 181, 228.213 181 L 231.427 181 260.963 210.400 L 290.500 239.800 294.126 240.785 C 303.416 243.309, 311.045 236.120, 309.285 226.500 L 308.737 223.500 279.010 193.500 C 262.661 177, 248.997 162.680, 248.646 161.678 C 247.327 157.912, 250.772 154.040, 255.464 154.015 L 258.428 154 288.464 183.885 L 318.500 213.770 322 214.135 C 332.071 215.185, 339.007 207.610, 336.083 198.753 L 335.009 195.500 288.734 149.234 L 242.459 102.967 223.038 121.618 L 203.617 140.269 198.559 142.625 L 193.500 144.980 186.500 144.968 L 179.500 144.956 175.148 142.981 C 168.099 139.783, 163.317 135.346, 160.303 129.208 L 157.500 123.500 157.500 116 L 157.500 108.500 159.928 103.500 L 162.356 98.500 185.109 75.500 L 207.863 52.500 201.367 47.660 C 192.753 41.241, 180.970 35.441, 171.337 32.877 L 163.500 30.791 150.500 30.428 L 137.500 30.064 130.977 31.427 M 272.849 31.494 C 256.384 34.624, 240.957 42.002, 228.208 52.843 C 219.689 60.088, 173.627 106.773, 172.126 109.684 C 166.380 120.830, 178.428 134.385, 191.057 130.985 L 195.282 129.847 215.364 110.174 C 226.409 99.353, 236.938 88.931, 238.761 87.013 L 242.076 83.526 296.233 137.763 C 326.019 167.593, 350.640 191.980, 350.945 191.956 C 356.042 191.551, 374.705 158.841, 378.522 143.622 L 381 133.744 381 123.330 C 381 72.215, 342.718 32.727, 291 30.493 L 280.500 30.040 272.849 31.494 M 988.350 58.928 C 985.956 60.015, 983.099 62.432, 981.600 64.639 L 979 68.464 979 73.782 C 979 93.575, 1006.781 97.272, 1011.099 78.053 L 1012.041 73.864 1010.916 69.682 C 1008.223 59.662, 997.738 54.666, 988.350 58.928 M 618.245 163.250 L 618.500 263.500 630.750 263.781 L 643 264.062 643 163.531 L 643 63 630.495 63 L 617.990 63 618.245 163.250 M 1355.245 163.250 L 1355.500 263.500 1374 263.500 L 1392.500 263.500 1392.786 253.163 L 1393.072 242.826 1400.179 249.530 L 1407.286 256.234 1414.421 259.623 C 1422.162 263.299, 1434.141 266.021, 1442.338 265.965 C 1524.210 265.412, 1537.470 132.940, 1457.665 112.832 L 1449.500 110.775 1439.500 111.329 C 1422.316 112.282, 1409.028 118.048, 1398.447 129.141 L 1393 134.852 1393 98.926 L 1393 63 1373.995 63 L 1354.990 63 1355.245 163.250 M 1047.461 75.250 C 1047.199 75.938, 1047.100 118.575, 1047.242 170 L 1047.500 263.500 1097.250 263.759 L 1147 264.019 1147 248.509 L 1147 233 1116 233 L 1085 233 1085 153.500 L 1085 74 1066.469 74 L 1047.937 74 1047.461 75.250 M 482 169.531 L 482 264.062 494.250 263.781 L 506.500 263.500 506.761 221.250 L 507.022 179 540.011 179 L 573 179 573 168.500 L 573 158 540 158 L 507 158 507 126.511 L 507 95.022 547.750 94.761 L 588.500 94.500 588.786 84.750 L 589.072 75 535.536 75 L 482 75 482 169.531 M 1214.112 113.045 C 1188.771 119.681, 1171.737 137.341, 1164.380 164.601 L 1162.518 171.500 1162.509 188 L 1162.500 204.500 1164.794 212.500 C 1166.055 216.900, 1168.965 224.325, 1171.260 229 L 1175.432 237.500 1183.966 246.087 C 1196.817 259.018, 1208.484 264.391, 1226.302 265.582 L 1235.500 266.197 1243 264.617 C 1247.125 263.749, 1254.272 261.178, 1258.883 258.905 L 1267.265 254.772 1273.633 248.404 L 1280 242.037 1280 253.041 L 1280 264.044 1298.750 263.772 L 1317.500 263.500 1317.500 188.500 L 1317.500 113.500 1298.750 113.228 L 1280 112.956 1280 123.572 L 1280 134.187 1273.058 127.760 C 1257.411 113.274, 1234.796 107.628, 1214.112 113.045 M 1588.461 112.929 C 1554.602 120.826, 1533.687 144.453, 1529.900 179.081 L 1528.852 188.662 1529.924 198.273 C 1532.112 217.894, 1538.408 231.391, 1551.500 244.526 L 1559.500 252.552 1568 256.790 C 1572.675 259.120, 1580.100 261.990, 1584.500 263.166 L 1592.500 265.305 1605.500 265.280 L 1618.500 265.256 1626.500 263.134 C 1712.651 240.282, 1697.678 114.074, 1608.500 111.412 L 1596.500 111.054 1588.461 112.929 M 1969 111.637 C 1952.125 114.101, 1942.051 119.612, 1931.770 132.004 L 1928.039 136.500 1928.020 124.750 L 1928 113 1909.500 113 L 1891 113 1891 188.500 L 1891 264 1909.500 264 L 1928 264 1928.008 226.750 C 1928.019 168.653, 1930.190 160.302, 1946.959 153.858 L 1952.500 151.728 1963.250 151.236 L 1974 150.743 1974 130.872 L 1974 111 1972.750 111.136 C 1972.063 111.211, 1970.375 111.437, 1969 111.637 M 730 114.496 C 657.957 130.619, 657.574 244.781, 729.500 263.545 L 736.500 265.371 749.500 265.383 L 762.500 265.396 769.472 263.661 C 791.003 258.303, 817 234.027, 817 219.278 L 817 218 804.017 218 L 791.034 218 788.419 223.161 C 768.803 261.870, 701.387 244.590, 701.015 200.758 L 701 199.016 760.250 198.758 L 819.500 198.500 819.478 183.500 L 819.456 168.500 817.146 161 C 810.325 138.848, 794.561 122.837, 772.607 115.762 L 766.500 113.794 751.500 113.418 L 736.500 113.042 730 114.496 M 1710.401 114.396 C 1710.107 115.164, 1710.035 138.227, 1710.243 165.646 L 1710.621 215.500 1712.325 221.500 C 1713.263 224.800, 1715.673 230.875, 1717.681 235 L 1721.332 242.500 1727.916 249.079 C 1749.053 270.201, 1788.760 270.641, 1809.750 249.987 L 1815 244.821 1815 254.411 L 1815 264 1834 264 L 1853 264 1853 188.500 L 1853 113 1834 113 L 1815 113 1814.983 156.750 L 1814.965 200.500 1813.553 207.164 C 1811.166 218.425, 1805.438 226.057, 1796.149 230.351 L 1791.500 232.500 1781.500 232.500 L 1771.500 232.500 1765.693 229.649 L 1759.886 226.797 1755.962 221.833 C 1753.804 219.103, 1751.260 214.536, 1750.309 211.685 L 1748.579 206.500 1748.235 159.750 L 1747.891 113 1729.414 113 L 1710.937 113 1710.401 114.396 M 837.742 118.250 C 838.809 120.037, 849.463 136.722, 861.418 155.327 C 873.541 174.194, 882.917 189.773, 882.618 190.552 C 882.324 191.320, 871.714 207.899, 859.041 227.394 C 846.369 246.888, 836 263.113, 836 263.449 C 836 263.785, 841.696 263.934, 848.658 263.780 L 861.315 263.500 877.908 236.279 C 897.716 203.781, 892.543 204.013, 912.012 234.750 C 920.982 248.912, 928.994 261.287, 929.816 262.250 L 931.310 264 944.655 264 C 951.995 264, 958 263.781, 958 263.514 C 958 263.246, 947.551 246.708, 934.780 226.764 C 907.121 183.569, 907.806 192.276, 929.451 159 C 939.289 143.875, 949.740 127.787, 952.675 123.250 L 958.012 115 945.162 115 L 932.312 115 915.512 142.525 L 898.711 170.051 893.754 162.275 C 891.027 157.999, 883.105 145.618, 876.148 134.761 L 863.500 115.023 849.651 115.011 L 835.802 115 837.742 118.250 M 983 189.500 L 983 264 995 264 L 1007 264 1007 189.500 L 1007 115 995 115 L 983 115 983 189.500 M 733.487 135.799 C 715.675 141.958, 704.500 155.471, 701.687 174.250 L 701.126 178 748.063 178 L 795 178 795 175.210 C 795 152, 774.420 133.943, 748.068 134.033 L 738.500 134.065 733.487 135.799 M 1231.624 145.048 C 1218.033 148.460, 1207.622 158.280, 1202.976 172.071 L 1200.818 178.477 1200.818 187.544 C 1200.818 202.841, 1204.955 213.039, 1214.890 222.238 L 1220.931 227.830 1226.715 230.009 L 1232.500 232.187 1242 231.804 L 1251.500 231.421 1257.803 228.043 C 1299.406 205.747, 1276.692 133.736, 1231.624 145.048 M 1423.024 145.540 C 1386.952 155.652, 1381.844 209.994, 1415.263 228.118 L 1421.500 231.500 1432.500 231.500 L 1443.500 231.500 1449.109 228.745 C 1479.773 213.686, 1479.946 163.112, 1449.383 148.412 L 1442.058 144.889 1435.279 144.447 C 1430.943 144.164, 1426.526 144.558, 1423.024 145.540 M 1596.384 145.412 C 1562.672 153.593, 1556.612 211.320, 1587.689 228.234 C 1622.105 246.966, 1656.122 208.146, 1640.913 167.496 L 1638.675 161.515 1633.042 155.882 C 1622.576 145.416, 1610.535 141.977, 1596.384 145.412 M 109.500 176.559 C 93.359 184.879, 85.471 202.881, 95.199 209.197 C 105.388 215.812, 129.271 196.621, 125.888 184.537 C 123.819 177.147, 115.868 173.276, 109.500 176.559 M 136.500 203.363 C 134.850 204.107, 130.039 208.347, 125.809 212.785 L 118.118 220.855 117.466 224.330 L 116.814 227.806 118.542 231.447 C 120.868 236.349, 125.386 238.550, 132.224 238.111 C 134.627 237.956, 146.906 227.192, 150.347 222.223 C 157.891 211.330, 148.177 198.101, 136.500 203.363 M 163.500 230.413 C 161.850 231.147, 157.073 235.292, 152.883 239.624 L 145.267 247.500 144.555 250.747 C 142.870 258.429, 148.263 265, 156.254 265 L 160.700 265 164.600 262.175 C 169.176 258.860, 177.555 249.762, 179.506 245.989 L 180.869 243.353 180.023 239.603 C 178.172 231.397, 170.669 227.224, 163.500 230.413 M 192.108 256.724 C 190.792 256.973, 185.771 261.074, 180.949 265.838 L 172.182 274.500 171.499 278.145 C 170.438 283.816, 174.494 290.018, 180.579 292.026 L 183.864 293.110 187.854 291.075 C 193.697 288.093, 203.546 278.569, 205.976 273.550 L 208.086 269.191 207.385 266.345 C 206.317 262.013, 204.224 259.334, 200.540 257.586 C 197.162 255.983, 196.428 255.908, 192.108 256.724" stroke="none" fill="#05acf4" fill-rule="evenodd"/><path d="M -0 160.500 L -0 321.001 1000.250 320.750 L 2000.500 320.500 2000.753 160.250 L 2001.006 0 1000.503 0 L 0 0 -0 160.500 M 0.488 161 C 0.488 249.275, 0.606 285.388, 0.750 241.250 C 0.894 197.113, 0.894 124.888, 0.750 80.750 C 0.606 36.613, 0.488 72.725, 0.488 161 M 130.977 31.427 C 61.429 45.959, 27.603 141.589, 77.394 182.912 L 78.970 184.220 89.235 174.963 C 111.721 154.685, 130.930 157.546, 139.506 182.450 L 141.574 188.457 145.711 189.163 C 157.117 191.111, 167 201.930, 167 212.470 C 167 214.928, 167.591 215.272, 174 216.547 C 184.398 218.617, 191.970 226.565, 193.623 237.145 C 194.388 242.039, 195.283 242.963, 199.283 242.985 C 206.538 243.025, 216.278 250.924, 219.512 259.392 L 221.269 263.993 220.764 271.061 L 220.258 278.128 228.122 285.940 C 239.679 297.420, 245.490 298.761, 251.924 291.434 L 255 287.930 255 283.265 L 255 278.599 222.500 246 L 190 213.401 190 210.701 C 190 209.215, 190.927 207.073, 192.059 205.941 L 194.118 203.882 197.004 204.191 L 199.890 204.500 232.360 236.189 L 264.830 267.877 268.318 268.532 L 271.806 269.186 275.447 267.458 C 286.686 262.125, 284.545 252.473, 268.803 237.514 C 248.686 218.397, 221 189.174, 221 187.057 C 221 183.966, 224.532 181, 228.213 181 L 231.427 181 260.963 210.400 L 290.500 239.800 294.126 240.785 C 303.416 243.309, 311.045 236.120, 309.285 226.500 L 308.737 223.500 279.010 193.500 C 262.661 177, 248.997 162.680, 248.646 161.678 C 247.327 157.912, 250.772 154.040, 255.464 154.015 L 258.428 154 288.464 183.885 L 318.500 213.770 322 214.135 C 332.071 215.185, 339.007 207.610, 336.083 198.753 L 335.009 195.500 288.734 149.234 L 242.459 102.967 223.038 121.618 L 203.617 140.269 198.559 142.625 L 193.500 144.980 186.500 144.968 L 179.500 144.956 175.148 142.981 C 168.099 139.783, 163.317 135.346, 160.303 129.208 L 157.500 123.500 157.500 116 L 157.500 108.500 159.928 103.500 L 162.356 98.500 185.109 75.500 L 207.863 52.500 201.367 47.660 C 192.753 41.241, 180.970 35.441, 171.337 32.877 L 163.500 30.791 150.500 30.428 L 137.500 30.064 130.977 31.427 M 272.849 31.494 C 256.384 34.624, 240.957 42.002, 228.208 52.843 C 219.689 60.088, 173.627 106.773, 172.126 109.684 C 166.380 120.830, 178.428 134.385, 191.057 130.985 L 195.282 129.847 215.364 110.174 C 226.409 99.353, 236.938 88.931, 238.761 87.013 L 242.076 83.526 296.233 137.763 C 326.019 167.593, 350.640 191.980, 350.945 191.956 C 356.042 191.551, 374.705 158.841, 378.522 143.622 L 381 133.744 381 123.330 C 381 72.215, 342.718 32.727, 291 30.493 L 280.500 30.040 272.849 31.494 M 988.350 58.928 C 985.956 60.015, 983.099 62.432, 981.600 64.639 L 979 68.464 979 73.782 C 979 93.575, 1006.781 97.272, 1011.099 78.053 L 1012.041 73.864 1010.916 69.682 C 1008.223 59.662, 997.738 54.666, 988.350 58.928 M 618.245 163.250 L 618.500 263.500 630.750 263.781 L 643 264.062 643 163.531 L 643 63 630.495 63 L 617.990 63 618.245 163.250 M 1355.245 163.250 L 1355.500 263.500 1374 263.500 L 1392.500 263.500 1392.786 253.163 L 1393.072 242.826 1400.179 249.530 L 1407.286 256.234 1414.421 259.623 C 1422.162 263.299, 1434.141 266.021, 1442.338 265.965 C 1524.210 265.412, 1537.470 132.940, 1457.665 112.832 L 1449.500 110.775 1439.500 111.329 C 1422.316 112.282, 1409.028 118.048, 1398.447 129.141 L 1393 134.852 1393 98.926 L 1393 63 1373.995 63 L 1354.990 63 1355.245 163.250 M 1047.461 75.250 C 1047.199 75.938, 1047.100 118.575, 1047.242 170 L 1047.500 263.500 1097.250 263.759 L 1147 264.019 1147 248.509 L 1147 233 1116 233 L 1085 233 1085 153.500 L 1085 74 1066.469 74 L 1047.937 74 1047.461 75.250 M 482 169.531 L 482 264.062 494.250 263.781 L 506.500 263.500 506.761 221.250 L 507.022 179 540.011 179 L 573 179 573 168.500 L 573 158 540 158 L 507 158 507 126.511 L 507 95.022 547.750 94.761 L 588.500 94.500 588.786 84.750 L 589.072 75 535.536 75 L 482 75 482 169.531 M 1214.112 113.045 C 1188.771 119.681, 1171.737 137.341, 1164.380 164.601 L 1162.518 171.500 1162.509 188 L 1162.500 204.500 1164.794 212.500 C 1166.055 216.900, 1168.965 224.325, 1171.260 229 L 1175.432 237.500 1183.966 246.087 C 1196.817 259.018, 1208.484 264.391, 1226.302 265.582 L 1235.500 266.197 1243 264.617 C 1247.125 263.749, 1254.272 261.178, 1258.883 258.905 L 1267.265 254.772 1273.633 248.404 L 1280 242.037 1280 253.041 L 1280 264.044 1298.750 263.772 L 1317.500 263.500 1317.500 188.500 L 1317.500 113.500 1298.750 113.228 L 1280 112.956 1280 123.572 L 1280 134.187 1273.058 127.760 C 1257.411 113.274, 1234.796 107.628, 1214.112 113.045 M 1588.461 112.929 C 1554.602 120.826, 1533.687 144.453, 1529.900 179.081 L 1528.852 188.662 1529.924 198.273 C 1532.112 217.894, 1538.408 231.391, 1551.500 244.526 L 1559.500 252.552 1568 256.790 C 1572.675 259.120, 1580.100 261.990, 1584.500 263.166 L 1592.500 265.305 1605.500 265.280 L 1618.500 265.256 1626.500 263.134 C 1712.651 240.282, 1697.678 114.074, 1608.500 111.412 L 1596.500 111.054 1588.461 112.929 M 1969 111.637 C 1952.125 114.101, 1942.051 119.612, 1931.770 132.004 L 1928.039 136.500 1928.020 124.750 L 1928 113 1909.500 113 L 1891 113 1891 188.500 L 1891 264 1909.500 264 L 1928 264 1928.008 226.750 C 1928.019 168.653, 1930.190 160.302, 1946.959 153.858 L 1952.500 151.728 1963.250 151.236 L 1974 150.743 1974 130.872 L 1974 111 1972.750 111.136 C 1972.063 111.211, 1970.375 111.437, 1969 111.637 M 730 114.496 C 657.957 130.619, 657.574 244.781, 729.500 263.545 L 736.500 265.371 749.500 265.383 L 762.500 265.396 769.472 263.661 C 791.003 258.303, 817 234.027, 817 219.278 L 817 218 804.017 218 L 791.034 218 788.419 223.161 C 768.803 261.870, 701.387 244.590, 701.015 200.758 L 701 199.016 760.250 198.758 L 819.500 198.500 819.478 183.500 L 819.456 168.500 817.146 161 C 810.325 138.848, 794.561 122.837, 772.607 115.762 L 766.500 113.794 751.500 113.418 L 736.500 113.042 730 114.496 M 1710.401 114.396 C 1710.107 115.164, 1710.035 138.227, 1710.243 165.646 L 1710.621 215.500 1712.325 221.500 C 1713.263 224.800, 1715.673 230.875, 1717.681 235 L 1721.332 242.500 1727.916 249.079 C 1749.053 270.201, 1788.760 270.641, 1809.750 249.987 L 1815 244.821 1815 254.411 L 1815 264 1834 264 L 1853 264 1853 188.500 L 1853 113 1834 113 L 1815 113 1814.983 156.750 L 1814.965 200.500 1813.553 207.164 C 1811.166 218.425, 1805.438 226.057, 1796.149 230.351 L 1791.500 232.500 1781.500 232.500 L 1771.500 232.500 1765.693 229.649 L 1759.886 226.797 1755.962 221.833 C 1753.804 219.103, 1751.260 214.536, 1750.309 211.685 L 1748.579 206.500 1748.235 159.750 L 1747.891 113 1729.414 113 L 1710.937 113 1710.401 114.396 M 837.742 118.250 C 838.809 120.037, 849.463 136.722, 861.418 155.327 C 873.541 174.194, 882.917 189.773, 882.618 190.552 C 882.324 191.320, 871.714 207.899, 859.041 227.394 C 846.369 246.888, 836 263.113, 836 263.449 C 836 263.785, 841.696 263.934, 848.658 263.780 L 861.315 263.500 877.908 236.279 C 897.716 203.781, 892.543 204.013, 912.012 234.750 C 920.982 248.912, 928.994 261.287, 929.816 262.250 L 931.310 264 944.655 264 C 951.995 264, 958 263.781, 958 263.514 C 958 263.246, 947.551 246.708, 934.780 226.764 C 907.121 183.569, 907.806 192.276, 929.451 159 C 939.289 143.875, 949.740 127.787, 952.675 123.250 L 958.012 115 945.162 115 L 932.312 115 915.512 142.525 L 898.711 170.051 893.754 162.275 C 891.027 157.999, 883.105 145.618, 876.148 134.761 L 863.500 115.023 849.651 115.011 L 835.802 115 837.742 118.250 M 983 189.500 L 983 264 995 264 L 1007 264 1007 189.500 L 1007 115 995 115 L 983 115 983 189.500 M 733.487 135.799 C 715.675 141.958, 704.500 155.471, 701.687 174.250 L 701.126 178 748.063 178 L 795 178 795 175.210 C 795 152, 774.420 133.943, 748.068 134.033 L 738.500 134.065 733.487 135.799 M 1231.624 145.048 C 1218.033 148.460, 1207.622 158.280, 1202.976 172.071 L 1200.818 178.477 1200.818 187.544 C 1200.818 202.841, 1204.955 213.039, 1214.890 222.238 L 1220.931 227.830 1226.715 230.009 L 1232.500 232.187 1242 231.804 L 1251.500 231.421 1257.803 228.043 C 1299.406 205.747, 1276.692 133.736, 1231.624 145.048 M 1423.024 145.540 C 1386.952 155.652, 1381.844 209.994, 1415.263 228.118 L 1421.500 231.500 1432.500 231.500 L 1443.500 231.500 1449.109 228.745 C 1479.773 213.686, 1479.946 163.112, 1449.383 148.412 L 1442.058 144.889 1435.279 144.447 C 1430.943 144.164, 1426.526 144.558, 1423.024 145.540 M 1596.384 145.412 C 1562.672 153.593, 1556.612 211.320, 1587.689 228.234 C 1622.105 246.966, 1656.122 208.146, 1640.913 167.496 L 1638.675 161.515 1633.042 155.882 C 1622.576 145.416, 1610.535 141.977, 1596.384 145.412 M 109.500 176.559 C 93.359 184.879, 85.471 202.881, 95.199 209.197 C 105.388 215.812, 129.271 196.621, 125.888 184.537 C 123.819 177.147, 115.868 173.276, 109.500 176.559 M 136.500 203.363 C 134.850 204.107, 130.039 208.347, 125.809 212.785 L 118.118 220.855 117.466 224.330 L 116.814 227.806 118.542 231.447 C 120.868 236.349, 125.386 238.550, 132.224 238.111 C 134.627 237.956, 146.906 227.192, 150.347 222.223 C 157.891 211.330, 148.177 198.101, 136.500 203.363 M 163.500 230.413 C 161.850 231.147, 157.073 235.292, 152.883 239.624 L 145.267 247.500 144.555 250.747 C 142.870 258.429, 148.263 265, 156.254 265 L 160.700 265 164.600 262.175 C 169.176 258.860, 177.555 249.762, 179.506 245.989 L 180.869 243.353 180.023 239.603 C 178.172 231.397, 170.669 227.224, 163.500 230.413 M 192.108 256.724 C 190.792 256.973, 185.771 261.074, 180.949 265.838 L 172.182 274.500 171.499 278.145 C 170.438 283.816, 174.494 290.018, 180.579 292.026 L 183.864 293.110 187.854 291.075 C 193.697 288.093, 203.546 278.569, 205.976 273.550 L 208.086 269.191 207.385 266.345 C 206.317 262.013, 204.224 259.334, 200.540 257.586 C 197.162 255.983, 196.428 255.908, 192.108 256.724" stroke="none" fill="#ffffff" fill-rule="evenodd"/></svg>